<?xml version="1.0" encoding="UTF-8"?>
<svg version="1.1" xmlns="http://www.w3.org/2000/svg" width="207" height="194" viewBox="30 28 207 194">
<path d="M0 0 C0 1.32 0 2.64 0 4 C-0.66 4 -1.32 4 -2 4 C-2 6.64 -2 9.28 -2 12 C-0.9275 12.268125 0.145 12.53625 1.25 12.8125 C3.2265625 13.625 3.2265625 13.625 5 15 C5.8984375 17.4375 5.8984375 17.4375 6.625 20.3125 C7.82225084 24.37883843 8.526696 25.68957867 12.1328125 28.0546875 C15.38673353 29.5235201 18.62331525 30.84353427 22 32 C21.23140206 37.22348114 20.33060626 41.7883322 17 46 C13.1826782 47.54032283 10.3231117 47.96246492 6.24609375 48.078125 C-0.18031039 48.25060627 -0.18031039 48.25060627 -5.4375 51.5625 C-10.59462377 58.77058365 -11.56246055 69.31379921 -13.0625 77.875 C-15.11354336 89.38841985 -18.30557775 96.2264186 -27.34106445 104.01904297 C-35.27148664 111.78277951 -35.25886686 119.6955 -35.50195312 130.31835938 C-35.52308032 132.44139706 -35.54325096 134.56444446 -35.5625 136.6875 C-35.61386964 138.85361339 -35.6691734 141.01963724 -35.72851562 143.18554688 C-35.86444586 148.45685383 -35.95155243 153.72720109 -36 159 C-34.35 159.33 -32.7 159.66 -31 160 C-30.49242138 161.41396902 -29.99425075 162.83131729 -29.5 164.25 C-29.08234375 165.43335938 -29.08234375 165.43335938 -28.65625 166.640625 C-28 169 -28 169 -28 173 C-34.27 173 -40.54 173 -47 173 C-47.99 170.03 -48.98 167.06 -50 164 C-50.52464844 162.845 -51.04929687 161.69 -51.58984375 160.5 C-53.26771429 156.33553462 -53.95736522 152.42790198 -54.5625 148 C-54.68471924 147.15147461 -54.80693848 146.30294922 -54.93286133 145.42871094 C-56.37262172 134.9958838 -57.20418791 124.49843311 -58 114 C-68.8859385 111.91662843 -68.8859385 111.91662843 -79.8125 110.0625 C-83.51239815 109.4705163 -87.16612805 108.75927683 -90.82421875 107.953125 C-91.67717529 107.76613037 -92.53013184 107.57913574 -93.40893555 107.38647461 C-95.10881684 107.00991559 -96.80699543 106.62556797 -98.50317383 106.23266602 C-99.28587646 106.05920654 -100.0685791 105.88574707 -100.875 105.70703125 C-101.57367188 105.5469458 -102.27234375 105.38686035 -102.9921875 105.22192383 C-105.27908691 104.96915248 -106.83734839 105.2344468 -109 106 C-109.433125 106.53625 -109.86625 107.0725 -110.3125 107.625 C-112 109 -112 109 -115.3125 108.75 C-117.1378125 108.37875 -117.1378125 108.37875 -119 108 C-120.99914417 107.66157172 -122.99901724 107.32738223 -125 107 C-125.1952124 107.61294922 -125.3904248 108.22589844 -125.59155273 108.85742188 C-132.22421504 129.42655961 -132.22421504 129.42655961 -138 138.8125 C-141.54449107 144.57248054 -143.32552184 149.19238166 -142 156 C-140.02 156 -138.04 156 -136 156 C-135.3291288 157.6232687 -134.66342971 159.24867578 -134 160.875 C-133.62875 161.77992188 -133.2575 162.68484375 -132.875 163.6171875 C-132 166 -132 166 -132 168 C-134.31 168.33 -136.62 168.66 -139 169 C-139 170.32 -139 171.64 -139 173 C-144.94 173 -150.88 173 -157 173 C-157.5775 170.31875 -158.155 167.6375 -158.75 164.875 C-160.29457441 157.7626983 -162.13534242 150.85025426 -164.36328125 143.91796875 C-165.85152897 137.09759422 -161.97096182 131.7351794 -158.8828125 125.8828125 C-158.52960938 125.19960937 -158.17640625 124.51640625 -157.8125 123.8125 C-157.48894531 123.20019531 -157.16539062 122.58789062 -156.83203125 121.95703125 C-154.7804268 117.13142642 -154.99125651 114.02810786 -156.6171875 109.0703125 C-156.97683594 107.94496094 -157.33648437 106.81960937 -157.70703125 105.66015625 C-158.09246094 104.49355469 -158.47789062 103.32695312 -158.875 102.125 C-164.74354174 84.11879172 -164.74354174 84.11879172 -163.0390625 79.26171875 C-162.57242188 78.41222656 -162.10578125 77.56273438 -161.625 76.6875 C-158.51034411 70.28369769 -156.87860907 64.9323442 -158.87890625 57.91796875 C-159.59989736 55.88060363 -160.36626311 53.85843848 -161.1875 51.859375 C-162.42460239 47.5057262 -161.40169981 44.20509942 -160 40 C-159.34 40 -158.68 40 -158 40 C-157.76216797 39.1646875 -157.76216797 39.1646875 -157.51953125 38.3125 C-155.77200669 32.59683956 -153.38791429 27.91448437 -150 23 C-149.360625 23.495 -148.72125 23.99 -148.0625 24.5 C-141.65850323 27.63665148 -135.58073792 26.02484244 -129 24 C-126.69140625 23.5625 -126.69140625 23.5625 -124 24 C-121.63234051 25.752811 -119.68565012 27.84403729 -117.6875 30 C-117.13771484 30.57234375 -116.58792969 31.1446875 -116.02148438 31.734375 C-114.6694059 33.14523949 -113.33311665 34.57120512 -112 36 C-112.33 36.99 -112.66 37.98 -113 39 C-113.66 39 -114.32 39 -115 39 C-114.54625 39.721875 -114.0925 40.44375 -113.625 41.1875 C-112.14505642 43.74894081 -111.02782461 46.23277989 -110 49 C-110.66 49 -111.32 49 -112 49 C-112 49.66 -112 50.32 -112 51 C-107.53836194 51.07524167 -103.07707883 51.12910583 -98.61499023 51.16479492 C-97.10320589 51.17970277 -95.59146337 51.20003634 -94.07983398 51.22631836 C-85.25142894 51.37575369 -77.28736044 51.03702086 -68.69287109 48.68017578 C-66.17139048 48.04329047 -63.90149751 47.79927459 -61.3125 47.6875 C-54.34753458 46.1496153 -50.59656912 37.6077628 -47 32 C-40.3747962 21.88296049 -33.59958008 11.79990668 -21 9 C-19.9171875 8.90589844 -18.834375 8.81179687 -17.71875 8.71484375 C-13.48327984 7.90067249 -11.16743126 6.44464234 -7.6875 3.9375 C-2.17223199 0 -2.17223199 0 0 0 Z M-18 16 C-18.67012422 19.2140814 -18.67012422 19.2140814 -18 22 C-19.65 22 -21.3 22 -23 22 C-23 20.02 -23 18.04 -23 16 C-28.50855458 16.64806525 -32.50195037 19.11467902 -35.94921875 23.453125 C-36.52285156 24.37609375 -37.09648437 25.2990625 -37.6875 26.25 C-38.68330078 27.81621094 -38.68330078 27.81621094 -39.69921875 29.4140625 C-40.05935059 29.98286133 -40.41948242 30.55166016 -40.79052734 31.13769531 C-43.57125402 35.41936327 -46.55137445 39.57236644 -49.49487305 43.74316406 C-52.08811479 47.05808419 -52.08811479 47.05808419 -53 51 C-54.13824219 50.93683594 -55.27648437 50.87367187 -56.44921875 50.80859375 C-61.36413505 50.80751473 -65.26791163 52.34332691 -69.8125 54.0625 C-79.88385191 57.56035264 -88.54732825 57.21588302 -99 56 C-106.96628769 55.25548713 -114.87596118 54.87384021 -122.875 54.8125 C-123.76751465 54.79952881 -124.6600293 54.78655762 -125.57958984 54.77319336 C-129.57896047 54.76756044 -133.06991684 54.87270506 -136.88671875 56.12890625 C-140 57 -140 57 -142.21484375 56.3203125 C-143.80989583 55.21354167 -145.40494792 54.10677083 -147 53 C-146.68950274 51.56206608 -146.3765224 50.1246682 -146.0625 48.6875 C-145.88847656 47.88699219 -145.71445313 47.08648437 -145.53515625 46.26171875 C-145 44 -145 44 -144 41 C-139.54255094 39.88563774 -135.5666235 39.63172391 -131 40 C-127.74757918 42.72783682 -127.4651643 45.9065542 -127 50 C-125.54257537 50.08096803 -124.08387193 50.13917774 -122.625 50.1875 C-121.40683594 50.23970703 -121.40683594 50.23970703 -120.1640625 50.29296875 C-119.44992188 50.19628906 -118.73578125 50.09960938 -118 50 C-117.34 49.01 -116.68 48.02 -116 47 C-117.28062485 45.2925002 -118.61767557 43.62626404 -120 42 C-120.66 42 -121.32 42 -122 42 C-121.01 40.68 -120.02 39.36 -119 38 C-120.58595705 34.10719633 -122.62413432 31.51394253 -126 29 C-129.10922046 28.73724898 -131.9615525 29.36523985 -135 30 C-136.93707484 30.35648468 -138.87458306 30.71062189 -140.8125 31.0625 C-141.70582031 31.23910156 -142.59914063 31.41570312 -143.51953125 31.59765625 C-146 32 -146 32 -150 32 C-155.42930328 40.02961363 -155.42930328 40.02961363 -157.1875 49.1875 C-155.95809432 53.13453929 -154.49543495 56.86319229 -152.7421875 60.60546875 C-150.81295113 66.82979452 -155.16347251 72.99348525 -157.72265625 78.52734375 C-159.80639232 84.19230207 -159.17119553 88.29452373 -157.03125 93.84375 C-156.62519531 94.92527344 -156.21914062 96.00679688 -155.80078125 97.12109375 C-155.15689453 98.79365234 -155.15689453 98.79365234 -154.5 100.5 C-153.6471812 102.71528006 -152.80310569 104.93395024 -151.96875 107.15625 C-151.59169922 108.13400391 -151.21464844 109.11175781 -150.82617188 110.11914062 C-149.71468625 113.99488836 -149.32720974 117.29078669 -150.82617188 121.09887695 C-151.20322266 121.72238037 -151.58027344 122.34588379 -151.96875 122.98828125 C-152.37480469 123.69533203 -152.78085938 124.40238281 -153.19921875 125.13085938 C-154.06125704 126.57665033 -154.92839395 128.01941434 -155.80078125 129.45898438 C-161.40324022 139.26773396 -158.68214027 148.48890976 -156 159 C-155.08866985 162.04597733 -154.08293058 165.00904887 -153 168 C-150.69 168 -148.38 168 -146 168 C-146 167.34 -146 166.68 -146 166 C-147.65 165.67 -149.3 165.34 -151 165 C-151.33801152 162.45887768 -151.67053379 159.91723254 -152 157.375 C-152.09539062 156.66214844 -152.19078125 155.94929687 -152.2890625 155.21484375 C-152.47115248 153.79714321 -152.63787128 152.37738252 -152.7890625 150.95605469 C-152.96409751 149.33292909 -153.1938396 147.71581266 -153.4375 146.1015625 C-152.72149742 141.02561566 -149.75299503 137.24300993 -147 133 C-146.04025033 131.41936809 -145.08692746 129.83481283 -144.140625 128.24609375 C-142.6595236 125.78054771 -141.17657944 123.31625231 -139.68676758 120.85595703 C-137.12454921 116.61013013 -134.61964009 112.35061515 -132.24609375 107.99609375 C-131.81329102 107.2162915 -131.38048828 106.43648926 -130.93457031 105.63305664 C-130.12495784 104.16710014 -129.33278091 102.69132742 -128.56152344 101.20483398 C-126.56446153 97.62493834 -125.24423041 95.70935334 -121.20703125 94.5390625 C-120.14871094 94.36117187 -119.09039062 94.18328125 -118 94 C-117.67 95.32 -117.34 96.64 -117 98 C-119.475 98.495 -119.475 98.495 -122 99 C-122 99.66 -122 100.32 -122 101 C-118.88578592 102.8454602 -116.61678684 103.46369062 -113 103 C-112.55398437 102.49597656 -112.10796875 101.99195313 -111.6484375 101.47265625 C-110 100 -110 100 -107.79296875 99.8203125 C-98.8422225 100.86702645 -90.15978882 102.81870926 -81.3828125 104.828125 C-74.25036828 106.42004909 -67.299095 107.56801275 -60 108 C-60.99 104.535 -60.99 104.535 -62 101 C-60.68 101 -59.36 101 -58 101 C-55.54862646 106.17512192 -54.29286043 110.84658657 -53.5 116.5 C-53.31836304 117.71103394 -53.31836304 117.71103394 -53.13305664 118.9465332 C-51.99916525 126.64136986 -51.01734585 134.3597947 -50.08984375 142.08203125 C-49.17484366 149.46441833 -47.55059347 156.37987591 -45.375 163.5 C-44.92125 164.985 -44.4675 166.47 -44 168 C-40.7 168 -37.4 168 -34 168 C-34 166.68 -34 165.36 -34 164 C-36.31 163.67 -38.62 163.34 -41 163 C-40.7357058 157.68372411 -40.46908146 152.36757164 -40.20043945 147.05151367 C-40.10965352 145.24881025 -40.01946808 143.44607646 -39.92993164 141.64331055 C-39.67541786 136.52317574 -39.40670474 131.40414351 -39.12115479 126.28564453 C-39.01030582 124.19442436 -38.92080474 122.1021008 -38.83349609 120.00976562 C-38.77371582 118.86830078 -38.71393555 117.72683594 -38.65234375 116.55078125 C-38.60972412 115.58696533 -38.56710449 114.62314941 -38.52319336 113.63012695 C-37.28862487 107.42387109 -31.99354533 102.96709696 -27.64453125 98.67578125 C-20.05218536 90.57473547 -18.53982275 81.93011892 -16.48632812 71.26782227 C-15.87795012 68.43086279 -14.93719377 65.74320237 -14 63 C-13.770875 61.3986708 -13.56153288 59.79434752 -13.375 58.1875 C-12.22779319 52.08139923 -8.72396713 47.91287089 -4 44 C-1.7421875 43.25390625 -1.7421875 43.25390625 0 43 C0 42.01 0 41.02 0 40 C1.794375 40.495 1.794375 40.495 3.625 41 C7.15791497 41.89265823 10.34079109 42.18296045 14 42 C14.33 39.69 14.66 37.38 15 35 C13.70903219 34.18639005 12.41720125 33.37414954 11.125 32.5625 C10.04605469 31.88380859 10.04605469 31.88380859 8.9453125 31.19140625 C7.0222453 29.97538499 7.0222453 29.97538499 5 29 C3.875 26.9375 3.875 26.9375 3 25 C0.525 26.485 0.525 26.485 -2 28 C-2 26.68 -2 25.36 -2 24 C-0.68 24 0.64 24 2 24 C1.81584568 21.05908413 1.81584568 21.05908413 1 18 C-1.54714915 16.13209062 -2.80869 16 -6 16 C-6.33 17.98 -6.66 19.96 -7 22 C-8.65 21.67 -10.3 21.34 -12 21 C-11.01 17.7 -10.02 14.4 -9 11 C-12.14803622 11 -15.72840115 14.03331375 -18 16 Z " fill="#e5d3b3" transform="translate(204,40)"/>
<path d="M0 0 C1.65 0.33 3.3 0.66 5 1 C4.835 2.03125 4.67 3.0625 4.5 4.125 C4.59608185 7.95571883 4.59608185 7.95571883 6.78125 9.80078125 C8.80788674 11.29578265 10.84985404 12.68975481 13 14 C12.34 15.32 11.68 16.64 11 18 C7.7173068 16.50923566 5.06922559 14.61379679 2.25 12.375 C1.45078125 11.74335937 0.6515625 11.11171875 -0.171875 10.4609375 C-0.77515625 9.97882813 -1.3784375 9.49671875 -2 9 C-1.34 6.03 -0.68 3.06 0 0 Z " fill="#e5d3b3" transform="translate(180,66)"/>
<path d="M0 0 C0.66 0 1.32 0 2 0 C0.51234879 4.22023159 -1.6784298 7.58126122 -4.125 11.3125 C-8.92458401 19.08335549 -8.83045276 26.11876907 -8 35 C-6.02 35 -4.04 35 -2 35 C-1.67 35.99 -1.34 36.98 -1 38 C-1.99 38 -2.98 38 -4 38 C-4 37.34 -4 36.68 -4 36 C-5.98 36 -7.96 36 -10 36 C-10.42849573 34.01820725 -10.72756589 32.00920153 -11 30 C-11.18949219 28.85144531 -11.18949219 28.85144531 -11.3828125 27.6796875 C-12.27411719 18.04784644 -7.0607869 11.68253029 -2 4 C-1.30396822 2.68175799 -0.6186532 1.35627816 0 0 Z " fill="#e5d3b3" transform="translate(66,165)"/>
<path d="M0 0 C0.33 0.66 0.66 1.32 1 2 C0.01 3.485 0.01 3.485 -1 5 C-1.99 5 -2.98 5 -4 5 C-4 3.68 -4 2.36 -4 1 C-2.68 0.67 -1.36 0.34 0 0 Z " fill="#e5d3b3" transform="translate(206,63)"/>
</svg>
